<?xml version="1.0" encoding="UTF-8" standalone="no"?>
<!DOCTYPE svg PUBLIC "-//W3C//DTD SVG 1.1//EN" "http://www.w3.org/Graphics/SVG/1.1/DTD/svg11.dtd">
<svg width="100%" height="100%" viewBox="0 0 3209 863" version="1.1" xmlns="http://www.w3.org/2000/svg" xmlns:xlink="http://www.w3.org/1999/xlink" xml:space="preserve" xmlns:serif="http://www.serif.com/" style="fill-rule:evenodd;clip-rule:evenodd;stroke-linejoin:round;stroke-miterlimit:2;">
    <g transform="matrix(4.16667,0,0,4.16667,0,0)">
        <path d="M393.41,50.022L352.776,50.022L319.902,114.982L286.221,50.022L245.848,50.022L245.848,134.764L273.922,134.764L271.399,68.188L305.996,134.764L334.867,134.764L367.782,70.513L365.338,134.764L393.41,134.764L393.41,50.022Z" style="fill:white;fill-rule:nonzero;"/>
        <path d="M602.984,50.022L604.125,110.162L550.861,50.022L516.38,50.022L516.38,134.764L544.441,134.764L543.227,70.335L599.511,134.764L631.058,134.764L631.058,50.022L602.984,50.022Z" style="fill:white;fill-rule:nonzero;"/>
        <path d="M676.62,70.621C683.527,63.706 697.165,64.525 697.165,64.525L745.807,64.525L745.807,49.867L697.165,49.867C687.811,49.867 675.188,51.902 675.188,51.902C650.563,56.995 643.443,71.441 643.443,71.441C637.943,79.787 638.555,90.369 638.555,90.369C638.555,104.554 641,109.095 641,109.095C647.512,129.639 677.42,133.72 677.42,133.72C689.974,135.204 697.165,135.135 697.165,135.135L745.807,135.135L745.807,120.481L697.165,120.481C685.649,120.063 678.854,116.413 678.854,116.413C666.44,110.309 668.474,92.611 668.474,92.611C668.474,76.121 676.62,70.621 676.62,70.621Z" style="fill:white;fill-rule:nonzero;"/>
        <path d="M439.945,70.621C446.861,63.706 460.505,64.525 460.505,64.525L509.148,64.525L509.148,49.867L460.505,49.867C451.14,49.867 438.52,51.902 438.52,51.902C413.898,56.995 406.773,71.441 406.773,71.441C401.283,79.787 401.891,90.369 401.891,90.369C401.891,104.554 404.337,109.095 404.337,109.095C410.844,129.639 440.763,133.72 440.763,133.72C453.314,135.204 460.505,135.135 460.505,135.135L509.148,135.135L509.148,120.481L460.505,120.481C448.989,120.063 442.187,116.413 442.187,116.413C429.77,110.309 431.812,92.611 431.812,92.611C431.812,76.121 439.945,70.621 439.945,70.621Z" style="fill:white;fill-rule:nonzero;"/>
        <path d="M762.79,133.056L760.39,129.455L761.71,128.904L764.614,133.056L762.79,133.056ZM759.022,128.615L761.038,128.615C761.614,128.615 762.054,128.483 762.358,128.22C762.662,127.955 762.814,127.552 762.814,127.007C762.814,126.464 762.662,126.06 762.358,125.795C762.054,125.531 761.614,125.399 761.038,125.399L759.022,125.399L759.022,128.615ZM757.414,133.056L757.414,124.176L761.062,124.176C761.734,124.176 762.322,124.292 762.826,124.523C763.33,124.756 763.722,125.079 764.002,125.495C764.282,125.911 764.422,126.416 764.422,127.007C764.422,127.888 764.11,128.579 763.486,129.083C762.862,129.587 762.054,129.839 761.062,129.839L759.022,129.839L759.022,133.056L757.414,133.056ZM760.798,135.167C762.094,135.167 763.229,134.876 764.206,134.291C765.182,133.707 765.941,132.915 766.486,131.915C767.029,130.917 767.302,129.8 767.302,128.567C767.302,127.335 767.029,126.22 766.486,125.22C765.941,124.22 765.182,123.428 764.206,122.844C763.229,122.26 762.094,121.968 760.798,121.968C759.518,121.968 758.386,122.26 757.402,122.844C756.418,123.428 755.653,124.22 755.11,125.22C754.565,126.22 754.294,127.335 754.294,128.567C754.294,129.8 754.565,130.917 755.11,131.915C755.653,132.915 756.418,133.707 757.402,134.291C758.386,134.876 759.518,135.167 760.798,135.167ZM760.798,136.728C759.166,136.728 757.733,136.367 756.502,135.647C755.269,134.928 754.31,133.951 753.622,132.72C752.934,131.488 752.59,130.104 752.59,128.567C752.59,127.016 752.934,125.627 753.622,124.403C754.31,123.18 755.269,122.207 756.502,121.487C757.733,120.768 759.166,120.407 760.798,120.407C762.43,120.407 763.861,120.764 765.094,121.476C766.326,122.188 767.286,123.159 767.974,124.392C768.662,125.624 769.006,127.016 769.006,128.567C769.006,130.104 768.662,131.488 767.974,132.72C767.286,133.951 766.326,134.928 765.094,135.647C763.861,136.367 762.43,136.728 760.798,136.728Z" style="fill:white;fill-rule:nonzero;"/>
        <path d="M68.347,88.925L107.368,81.129L120.627,55.378L144.817,95.175C144.817,95.175 145.859,96.473 143.775,100.639L128.432,125.079L144.817,152.394L175.761,99.854C175.761,99.854 178.366,94.915 173.951,88.413L124.009,2.321C124.009,2.321 120.627,-1.06 118.284,2.321L68.347,88.925Z" style="fill:white;fill-rule:nonzero;"/>
        <path d="M73.531,97.128C59.754,99.721 57.632,106.611 57.632,106.611L1.22,201.871C-2.783,208.603 4.346,206.773 4.346,206.773L109.828,184.846L96.793,161.737L54.124,170.033L85.536,119.067L127.604,110.179L135.314,98.324L127.604,85.286L73.531,97.128Z" style="fill:white;fill-rule:nonzero;"/>
        <path d="M182.237,104.796L165.589,133.409L187.694,169.82L138.016,160.197L112.008,120.141L91.721,124.042L87.563,129.507L115.134,176.579C115.134,176.579 118.771,182.308 127.352,184.125L236.335,206.231C236.335,206.231 245.437,208.836 239.973,200.51L182.237,104.796Z" style="fill:white;fill-rule:nonzero;"/>
    </g>
</svg>
