<svg xmlns="http://www.w3.org/2000/svg" xmlns:v="https://vecta.io/nano" width="100%" height="100%" viewBox="0 0 1080 1080" fill-rule="evenodd" stroke-linejoin="round" stroke-miterlimit="2"><g transform="matrix(.825391 0 0 .825391 93.2924 88.2124)"><path d="M941.321 675.301l130.858 216.97c24.44 37.201-16.23 25.576-16.23 25.576l-486.932-98.791c-38.386-8.115-54.615-33.736-54.615-33.736L449.96 675.301h9.634a2 2 0 0 0 2-2V540.634l38.858-7.467 116.206 178.982 221.973 42.991-80.473-132.536v-61.646l56.083-96.357 37.367 61.956v146.744a2 2 0 0 0 2 2h87.713zm-545.094-91.736l-5.007-8.547 5.007-6.578v15.125zm.001-58.195l-14.033 2.965-59.4 96.363v-47.793a2 2 0 0 0-3.288-1.53c-9.944 8.373-19.407 15.527-28.391 21.458-8.928 5.894-17.552 10.578-25.873 14.045a.98.98 0 0 0-.074.033c-14.868 6.915-32.939 10.348-54.203 10.348-13.581 0-26.467-1.569-38.658-4.708l85.201-143.88s9.482-30.773 71.028-42.353l67.691-14.828v109.88zm143.441-141.302l30.489-6.678 34.465 58.262-6.337 9.741-58.617-61.325zm15.963 107.627l-94.037 19.866v-110.39l6.023-1.319 88.014 91.843zM298.378 664.309l-56.552 91.743 190.653-37.064 58.218 103.259-471.299 97.971s-31.821 8.206-13.95-21.883l134.326-226.841c21.902 7.454 45.369 11.182 70.402 11.182 30.484 0 59.885-6.121 88.202-18.367zm97.85-288.794l-90.851 18.151L528.535 6.707c10.486-15.09 25.576 0 25.576 0l149.634 257.939h-8.953a2 2 0 0 0-2 2v277.618l-67.642-70.766 17.267-27.496c9.3-18.6 4.65-24.39 4.65-24.39L538.975 243.769l-46.716 90.701-92.585-96.861a2 2 0 0 0-3.446 1.382v136.524zm361.931-17.07l19.11 32.941c19.694 29.041 8.069 51.106 8.069 51.106l-27.179 46.14V358.445zm-78.216 262.972l-32.876 55.812-73.216-122.041 16.874-26.871 89.218 93.1z" fill="#fff" class="B"/><path d="M938.985 675.301l131.484 218.003c.02.022.03.044.04.065 3.53 5.373 5.67 9.68 6.72 13.134.92 3.027 1 5.294.36 6.984-1.16 3.018-4.56 3.833-8.07 4.037-6.19.359-13.02-1.6-13.02-1.6a2.05 2.05 0 0 0-.15-.037l-486.925-98.79c-36.567-7.733-52.569-31.677-53.306-32.806l-63.84-108.99h7.316a2 2 0 0 0 2-2V542.67l37.913-7.285L614.98 713.239a2 2 0 0 0 1.298.874l221.972 42.99a2 2 0 0 0 2.09-3.001L758.158 618.75v-53.816l56.113-96.409 37.337 61.905v142.871a2 2 0 0 0 2 2h85.377zm-542.758-95.693l-2.604-4.445 2.604-3.421v7.866zm.001-56.282l-14.447 3.052c-.535.113-1.001.441-1.289.907l-57.697 93.602v-43.982a2 2 0 0 0-3.288-1.53c-9.944 8.373-19.407 15.527-28.391 21.458-8.928 5.894-17.552 10.578-25.873 14.045a.98.98 0 0 0-.074.033c-14.868 6.915-32.939 10.348-54.203 10.348-12.832 0-25.042-1.4-36.633-4.202L259.23 473.69a2.01 2.01 0 0 0 .19-.43s9.451-29.68 69.486-40.976l.059-.012 67.263-14.734v105.788zm145.059-137.565l27.886-6.108 33.097 55.949-5.404 8.306-55.579-58.147zm12.716 104.234l-92.408 19.522V403.218l7.645-1.674 84.763 88.451zM295.198 665.657l-55.074 89.345a2 2 0 0 0 2.084 3.013l189.237-36.789 56.166 99.62-468.62 97.413-.093.022s-5.243 1.359-10.09.845c-2.703-.287-5.368-1.078-6.376-3.551-.568-1.391-.595-3.234-.004-5.654.684-2.804 2.188-6.271 4.739-10.565l.001-.002 134.546-227.211c21.346 7.022 44.167 10.533 68.462 10.533 29.344 0 57.685-5.671 85.022-17.019zm101.03-292.182l-86.912 17.364 86.912-150.706v133.342zm1.806-136.474L530.225 7.78c2.17-3.097 4.529-4.758 6.919-5.422 3.629-1.008 7.231.246 10.032 1.762a27 27 0 0 1 5.344 3.832l148.913 256.694h-6.641a2 2 0 0 0-2 2v277.618l-66.217-69.275 17.535-27.923a1.9 1.9 0 0 0 .096-.17c9.312-18.625 5.187-25.489 4.508-26.423.004.005-108.03-177.742-108.03-177.742-.375-.619-1.056-.986-1.779-.96a2 2 0 0 0-1.708 1.083l-46.4 90.087-91.123-95.332a2 2 0 0 0-1.64-.608zm360.125 125.43l17.38 29.959c.023.041.048.08.075.119 18.419 27.16 8.509 47.936 7.977 49.007-.002.003-10.389 17.637-25.432 43.175v-122.26zm-79.654 257.486l-31.454 53.398-70.854-118.103 15.955-25.406 86.353 90.111z" fill="#164577" class="B"/><g transform="matrix(1.29971 0 0 1.29971 -110.933 817.502)" class="B"><path d="M398.41 68.046c1.03 0 1.864.834 1.864 1.864v84.74c0 1.03-.834 1.864-1.864 1.864h-28.07c-.507 0-.992-.206-1.343-.571s-.539-.857-.52-1.364l2.12-55.828-29.068 56.749c-.319.623-.959 1.014-1.659 1.014H311c-.696 0-1.333-.387-1.654-1.004l-30.769-59.207 2.206 58.276c.019.507-.169.999-.52 1.364s-.836.571-1.343.571h-28.07c-1.03 0-1.864-.834-1.864-1.864V69.91c0-1.03.834-1.864 1.864-1.864h40.37c.696 0 1.335.388 1.655 1.006l32.005 61.729 31.237-61.713c.317-.627.96-1.022 1.663-1.022h40.63zm209.57 0h28.08c1.03 0 1.864.834 1.864 1.864v84.74c0 1.03-.834 1.864-1.864 1.864h-31.55a1.86 1.86 0 0 1-1.404-.638L550.19 95.298l1.114 59.317a1.87 1.87 0 0 1-.533 1.341c-.351.357-.83.558-1.331.558h-28.06c-1.03 0-1.864-.834-1.864-1.864V69.91c0-1.03.834-1.864 1.864-1.864h34.48c.534 0 1.042.228 1.396.628l49.913 56.351-1.053-55.079c-.01-.501.183-.984.533-1.342a1.86 1.86 0 0 1 1.331-.558zm74.683 24.009s-7.329 5.174-7.329 20.465a1.87 1.87 0 0 1-.012.212s-.681 5.978 1.285 11.996c1.255 3.842 3.607 7.727 8.065 9.919a1.16 1.16 0 0 1 .061.031s6.48 3.441 17.462 3.848H750.8c1.03 0 1.864.834 1.864 1.864v14.65c0 1.03-.834 1.864-1.864 1.864h-48.624c-.009 0-7.283.064-19.974-1.432-.012-.002-.023-.003-.035-.005 0 0-11.109-1.515-21.446-7.308-7.033-3.94-13.673-9.849-16.452-18.464-.461-.98-2.569-6.181-2.573-19.382-.038-.846-.395-11.443 5.137-19.916.716-1.374 8.556-15.383 32.98-20.433a1.9 1.9 0 0 1 .08-.014s12.801-2.064 22.277-2.064h48.64c1.03 0 1.864.834 1.864 1.864v14.66c0 1.03-.834 1.864-1.864 1.864h-48.64c-.037 0-.074-.001-.111-.003 0 0-4.657-.272-9.798.923-3.291.764-6.806 2.118-9.323 4.634-.084.085-.176.161-.275.227zm-236.669 0s-7.319 5.173-7.31 20.464c0 .072-.004.143-.012.214 0 0-.684 5.977 1.281 11.995 1.255 3.842 3.607 7.727 8.069 9.919.02.009.04.02.06.03 0 0 6.49 3.442 17.473 3.849h48.605c1.03 0 1.864.834 1.864 1.864v14.65c0 1.03-.834 1.864-1.864 1.864h-48.624c-.009 0-7.283.064-19.974-1.432-.012-.002-.023-.003-.035-.005 0 0-11.112-1.515-21.452-7.307-7.035-3.941-13.677-9.85-16.455-18.464-.466-.984-2.58-6.187-2.584-19.383-.038-.846-.395-11.443 5.127-19.915.712-1.366 8.558-15.383 32.99-20.434a2.18 2.18 0 0 1 .079-.014s12.781-2.064 22.278-2.064h48.64c1.03 0 1.864.834 1.864 1.864v14.66c0 1.03-.834 1.864-1.864 1.864h-48.64c-.037 0-.074-.001-.111-.003 0 0-4.657-.272-9.801.923-3.292.764-6.81 2.118-9.331 4.635a1.85 1.85 0 0 1-.273.226zm324.528 33.805c2.735 0 5.408.693 8.013 2.097 2.637 1.42 4.692 3.451 6.163 6.095 1.455 2.614 2.176 5.342 2.176 8.179 0 2.81-.71 5.514-2.144 8.108a15.31 15.31 0 0 1-6.089 6.099c-2.587 1.434-5.294 2.145-8.119 2.145s-5.532-.711-8.118-2.145a15.37 15.37 0 0 1-6.097-6.096c-1.441-2.595-2.156-5.3-2.156-8.111 0-2.838.725-5.567 2.188-8.182 1.478-2.643 3.535-4.673 6.171-6.092 2.605-1.404 5.277-2.097 8.012-2.097zm-8.224 22.482v-12.236a10.09 10.09 0 0 0-.621.975c-.926 1.65-1.395 3.365-1.395 5.15 0 1.773.46 3.47 1.367 5.096a10.13 10.13 0 0 0 .649 1.015zm4.33-15.565h2.895c2.119 0 3.648.205 4.596.538a5.67 5.67 0 0 1 2.884 2.221c.709 1.044 1.052 2.158 1.052 3.333 0 1.634-.575 3.059-1.741 4.271-.286.297-.595.563-.928.797.471.608.992 1.36 1.557 2.26l.004.006 1.54 2.473c.331-.416.63-.865.896-1.345.904-1.627 1.361-3.326 1.361-5.1 0-1.786-.467-3.503-1.388-5.154a9.33 9.33 0 0 0-3.782-3.744c-1.646-.889-3.329-1.342-5.052-1.342-1.325 0-2.623.264-3.894.786zm6.911 19.213c-.406-.152-.753-.443-.972-.832l-1.383-2.459c-.898-1.596-1.558-2.639-2.107-3.041l-.045-.034c-.123-.095-.289-.128-.488-.139v4.759c0 .77-.467 1.431-1.133 1.715a10.02 10.02 0 0 0 6.128.031zm-4.995-12.392h1.191c.572 0 1.053-.035 1.444-.12.151-.033.281-.044.362-.111s.114-.17.114-.287c0-.062-.011-.119-.046-.168a.46.46 0 0 0-.224-.153c-.331-.131-.948-.139-1.843-.139h-.998v.978z" fill="#fff"/><path d="M398.41 69.91h-40.63l-32.88 64.96-33.68-64.96h-40.37v84.74h28.07l-2.52-66.58 34.6 66.58h28.87l32.91-64.25-2.44 64.25h28.07V69.91zm209.57 0l1.15 60.14-53.27-60.14h-34.48v84.74h28.06l-1.21-64.43 56.28 64.43h31.55V69.91h-28.08zm73.64 20.6c6.91-6.91 20.55-6.1 20.55-6.1h48.64V69.75h-48.64c-9.35 0-21.98 2.04-21.98 2.04-24.62 5.09-31.74 19.54-31.74 19.54-5.5 8.35-4.89 18.93-4.89 18.93 0 14.19 2.44 18.73 2.44 18.73 6.51 20.54 36.42 24.63 36.42 24.63 12.55 1.48 19.74 1.42 19.74 1.42h48.64v-14.65h-48.64c-11.52-.42-18.31-4.07-18.31-4.07-12.41-6.1-10.38-23.8-10.38-23.8 0-16.51 8.15-22.01 8.15-22.01zm-236.67 0c6.92-6.91 20.56-6.1 20.56-6.1h48.64V69.75h-48.64c-9.37 0-21.98 2.04-21.98 2.04-24.62 5.09-31.75 19.54-31.75 19.54-5.49 8.35-4.88 18.93-4.88 18.93 0 14.19 2.45 18.73 2.45 18.73 6.51 20.54 36.43 24.63 36.43 24.63 12.55 1.48 19.74 1.42 19.74 1.42h48.64v-14.65h-48.64c-11.52-.42-18.32-4.07-18.32-4.07-12.42-6.1-10.38-23.8-10.38-23.8-.01-16.51 8.13-22.01 8.13-22.01zm325.572 37.215c2.434 0 4.81.624 7.129 1.873a13.31 13.31 0 0 1 5.418 5.361c1.294 2.325 1.941 4.749 1.941 7.272 0 2.498-.637 4.9-1.912 7.206a13.47 13.47 0 0 1-5.361 5.37c-2.299 1.275-4.704 1.912-7.215 1.912s-4.915-.637-7.215-1.912a13.54 13.54 0 0 1-5.37-5.37c-1.281-2.305-1.921-4.708-1.921-7.206 0-2.523.65-4.947 1.95-7.272a13.37 13.37 0 0 1 5.428-5.361c2.318-1.249 4.695-1.873 7.128-1.873zm0 2.401c-2.036 0-4.019.522-5.946 1.566a11.23 11.23 0 0 0-4.525 4.477c-1.089 1.941-1.634 3.962-1.634 6.062 0 2.088.535 4.09 1.605 6.005a11.38 11.38 0 0 0 4.486 4.477c1.922 1.069 3.926 1.604 6.014 1.604s4.093-.535 6.014-1.604 3.414-2.562 4.477-4.477 1.595-3.917 1.595-6.005c0-2.1-.541-4.121-1.623-6.062a11.15 11.15 0 0 0-4.525-4.477c-1.934-1.044-3.914-1.566-5.938-1.566zm-6.36 20.118v-15.602h5.361c1.832 0 3.158.144 3.978.432a3.85 3.85 0 0 1 1.959 1.508c.487.718.731 1.48.731 2.287 0 1.14-.407 2.133-1.221 2.978s-1.892 1.319-3.237 1.422c.551.23.993.506 1.326.826.627.615 1.396 1.646 2.305 3.094l1.903 3.055h-3.075l-1.383-2.46c-1.089-1.934-1.966-3.144-2.632-3.631-.462-.359-1.134-.538-2.018-.538h-1.479v6.629h-2.518zm2.518-8.781h3.055c1.46 0 2.456-.218 2.987-.654s.798-1.011.798-1.729c0-.461-.128-.874-.384-1.239s-.612-.637-1.067-.817-1.297-.269-2.527-.269h-2.862v4.708z" fill="#164577"/></g><path d="M320.794 288.506v72.693c-35.468-29.674-72.166-44.511-110.092-44.511-41.789 0-76.994 15.012-105.614 45.037-28.795 29.85-43.194 66.372-43.194 109.566 0 42.668 14.399 78.662 43.194 107.985s64.09 43.985 105.877 43.985c21.598 0 39.947-3.512 55.047-10.536 8.429-3.51 17.163-8.252 26.206-14.221s18.568-13.169 28.576-21.598v74.01c-35.117 19.84-71.989 29.762-110.618 29.762-58.119 0-107.722-20.281-148.809-60.841C20.455 578.924-.001 529.585-.001 471.819c0-51.798 17.121-97.978 51.36-138.537 42.141-49.691 96.66-74.536 163.557-74.536 36.521 0 71.814 9.92 105.877 29.76zm77.434 384.796v-434.31l296.564 310.259V266.647h61.367V698.06L459.594 388.591v284.711h-61.367zm679.779-348.976H914.975v97.713h158.291v57.68H914.975v135.902h163.031v57.68H853.608V266.647h224.398v57.68z" fill="#fff" class="B"/><path d="M318.371 289.903v66.174c-34.727-27.907-70.63-41.812-107.669-41.812-42.481 0-78.268 15.262-107.363 45.783-29.236 30.309-43.868 67.387-43.868 111.243 0 43.341 14.639 79.897 43.89 109.682 29.266 29.803 65.133 44.71 107.605 44.71 21.983 0 40.656-3.6 56.032-10.744 8.536-3.56 17.391-8.364 26.557-14.415 7.906-5.219 16.178-11.369 24.817-18.453v67.425c-34.368 19.168-70.433 28.758-108.195 28.758-57.451 0-106.486-20.045-147.102-60.137C22.64 577.68 2.422 528.914 2.422 471.819c0-51.214 16.934-96.87 50.787-136.972 41.662-49.128 95.569-73.678 161.708-73.678 35.673 0 70.156 9.587 103.454 28.735zm82.28 380.976V245.033l292.39 305.893c.683.715 1.735.942 2.653.575s1.521-1.26 1.521-2.25V269.07h56.52v422.959l-292.39-305.114c-.685-.715-1.735-.941-2.654-.572a2.42 2.42 0 0 0-1.52 2.248v282.288h-56.52zm674.932-348.976H914.975c-1.338 0-2.423 1.084-2.423 2.423v97.713c0 1.338 1.085 2.423 2.423 2.423h155.868v52.834H914.975c-1.338 0-2.423 1.084-2.423 2.423v135.902c0 1.338 1.085 2.423 2.423 2.423h160.608v52.834H856.031V269.07h219.552v52.834z"/></g></svg>