<?xml version="1.0" encoding="UTF-8" standalone="no"?><!DOCTYPE svg PUBLIC "-//W3C//DTD SVG 1.1//EN" "http://www.w3.org/Graphics/SVG/1.1/DTD/svg11.dtd"><svg width="100%" height="100%" viewBox="0 0 1023 981" version="1.1" xmlns="http://www.w3.org/2000/svg" xmlns:xlink="http://www.w3.org/1999/xlink" xml:space="preserve" xmlns:serif="http://www.serif.com/" style="fill-rule:evenodd;clip-rule:evenodd;stroke-linejoin:round;stroke-miterlimit:2;"><g><g><path d="M292.7,375.177l162.588,-32.483l55.246,-107.296l100.791,165.821c0,-0 4.342,5.408 -4.341,22.766l-63.93,101.834l68.271,113.812l128.934,-218.916c-0,-0 10.854,-20.58 -7.542,-47.671l-208.092,-358.717c0,-0 -14.091,-14.088 -23.854,-0l-208.071,360.85Z" style="fill:#fff;fill-rule:nonzero;"/></g><g><path d="M314.3,409.356c-57.404,10.804 -66.246,39.513 -66.246,39.513l-235.05,396.917c-16.679,28.05 13.025,20.425 13.025,20.425l439.509,-91.363l-54.313,-96.287l-177.787,34.566l130.883,-212.358l175.283,-37.034l32.125,-49.395l-32.125,-54.325l-225.304,49.341Z" style="fill:#fff;fill-rule:nonzero;"/></g><g><path d="M767.242,441.306l-69.367,119.221l92.105,151.713l-206.992,-40.096l-108.367,-166.9l-84.529,16.254l-17.325,22.771l114.879,196.133c0,0 15.154,23.871 50.908,31.442l454.097,92.108c-0,0 37.925,10.855 15.158,-23.837l-240.567,-398.809Z" style="fill:#fff;fill-rule:nonzero;"/></g></g><g><g><g><path d="M386.888,867.345l-49.435,-0l-39.995,79.03l-40.976,-79.03l-49.118,-0l-0,103.097l34.155,0l-3.07,-80.996l42.091,80.996l35.124,0l40.045,-78.168l-2.973,78.168l34.152,0l-0,-103.097Z" style="fill:#fff;fill-rule:nonzero;"/></g><g><path d="M641.856,867.345l1.388,73.166l-64.801,-73.166l-41.95,-0l0,103.097l34.139,0l-1.477,-78.384l68.476,78.384l38.38,0l-0,-103.097l-34.155,-0Z" style="fill:#fff;fill-rule:nonzero;"/></g><g><path d="M731.442,892.406c8.403,-8.413 24.995,-7.417 24.995,-7.417l59.177,0l0,-17.833l-59.177,0c-11.381,0 -26.738,2.476 -26.738,2.476c-29.958,6.196 -38.621,23.771 -38.621,23.771c-6.691,10.154 -5.946,23.028 -5.946,23.028c-0,17.257 2.974,22.782 2.974,22.782c7.923,24.994 44.309,29.959 44.309,29.959c15.273,1.805 24.022,1.721 24.022,1.721l59.177,0l0,-17.828l-59.177,0c-14.011,-0.508 -22.278,-4.949 -22.278,-4.949c-15.102,-7.426 -12.628,-28.957 -12.628,-28.957c0,-20.062 9.911,-26.753 9.911,-26.753Z" style="fill:#fff;fill-rule:nonzero;"/></g><g><path d="M443.502,892.406c8.414,-8.413 25.014,-7.417 25.014,-7.417l59.179,0l-0,-17.833l-59.179,0c-11.394,0 -26.747,2.476 -26.747,2.476c-29.955,6.196 -38.624,23.771 -38.624,23.771c-6.679,10.154 -5.939,23.028 -5.939,23.028c-0,17.257 2.976,22.782 2.976,22.782c7.916,24.994 44.316,29.959 44.316,29.959c15.269,1.805 24.018,1.721 24.018,1.721l59.179,0l-0,-17.828l-59.179,0c-14.011,-0.508 -22.286,-4.949 -22.286,-4.949c-15.106,-7.426 -12.622,-28.957 -12.622,-28.957c-0,-20.062 9.894,-26.753 9.894,-26.753Z" style="fill:#fff;fill-rule:nonzero;"/></g></g><g><path d="M836.276,968.364l-2.92,-4.381l1.606,-0.67l3.533,5.051l-2.219,0Zm-4.584,-5.403l2.453,0c0.7,0 1.236,-0.16 1.605,-0.48c0.37,-0.323 0.555,-0.813 0.555,-1.476c0,-0.661 -0.185,-1.152 -0.555,-1.475c-0.369,-0.321 -0.905,-0.481 -1.605,-0.481l-2.453,-0l-0,3.912Zm-1.956,5.403l-0,-10.803l4.438,-0c0.817,-0 1.533,0.141 2.146,0.422c0.613,0.283 1.09,0.676 1.431,1.182c0.34,0.506 0.511,1.121 0.511,1.84c-0,1.072 -0.38,1.912 -1.139,2.526c-0.759,0.613 -1.742,0.919 -2.949,0.919l-2.482,0l-0,3.914l-1.956,0Zm4.117,2.568c1.576,0 2.957,-0.354 4.146,-1.065c1.187,-0.711 2.111,-1.674 2.774,-2.891c0.66,-1.214 0.992,-2.573 0.992,-4.073c0,-1.499 -0.332,-2.856 -0.992,-4.072c-0.663,-1.217 -1.587,-2.18 -2.774,-2.891c-1.189,-0.71 -2.57,-1.066 -4.146,-1.066c-1.558,0 -2.935,0.356 -4.132,1.066c-1.197,0.711 -2.128,1.674 -2.788,2.891c-0.664,1.216 -0.993,2.573 -0.993,4.072c-0,1.5 0.329,2.859 0.993,4.073c0.66,1.217 1.591,2.18 2.788,2.891c1.197,0.711 2.574,1.065 4.132,1.065Zm-0,1.899c-1.986,0 -3.729,-0.439 -5.227,-1.315c-1.5,-0.874 -2.667,-2.063 -3.504,-3.561c-0.837,-1.499 -1.255,-3.182 -1.255,-5.052c-0,-1.887 0.418,-3.577 1.255,-5.066c0.837,-1.488 2.004,-2.672 3.504,-3.548c1.498,-0.875 3.241,-1.314 5.227,-1.314c1.985,0 3.726,0.435 5.226,1.301c1.499,0.866 2.667,2.047 3.504,3.547c0.837,1.499 1.255,3.193 1.255,5.08c0,1.87 -0.418,3.553 -1.255,5.052c-0.837,1.498 -2.005,2.687 -3.504,3.561c-1.5,0.876 -3.241,1.315 -5.226,1.315Z" style="fill:#fff;fill-rule:nonzero;"/></g></g></svg>